<?xml version="1.0" encoding="UTF-8" standalone="no"?>
<svg
   viewBox="7.069 -36.874 1221.204 520.786"
   width="1221.204"
   height="520.786"
   role="img"
   aria-labelledby="title desc"
   version="1.1"
   id="svg5"
   sodipodi:docname="mission-control-full-blue-black-meco-rocket-v5.svg"
   inkscape:version="1.4.2 (f4327f4, 2025-05-13)"
   xmlns:inkscape="http://www.inkscape.org/namespaces/inkscape"
   xmlns:sodipodi="http://sodipodi.sourceforge.net/DTD/sodipodi-0.dtd"
   xmlns="http://www.w3.org/2000/svg"
   xmlns:svg="http://www.w3.org/2000/svg"
   xmlns:rdf="http://www.w3.org/1999/02/22-rdf-syntax-ns#"
   xmlns:cc="http://creativecommons.org/ns#"
   xmlns:dc="http://purl.org/dc/elements/1.1/">
  <sodipodi:namedview
     id="namedview5"
     pagecolor="#ffffff"
     bordercolor="#000000"
     borderopacity="0.25"
     inkscape:showpageshadow="2"
     inkscape:pageopacity="0.0"
     inkscape:pagecheckerboard="0"
     inkscape:deskcolor="#d1d1d1"
     inkscape:zoom="1.0057377"
     inkscape:cx="533.43929"
     inkscape:cy="183.44743"
     inkscape:window-width="2560"
     inkscape:window-height="1494"
     inkscape:window-x="-11"
     inkscape:window-y="-11"
     inkscape:window-maximized="1"
     inkscape:current-layer="svg5" />
  <title
     id="title">Mission Control logo</title>
  <desc
     id="desc">Blue and black Mission Control logo with a square checkbox, check mark launch trail, and MECO-style rocket.</desc>
  <style
     id="style1">
    .boxStroke { fill:none; stroke:#061226; stroke-width:32; stroke-linecap:round; stroke-linejoin:round; }
    .checkStroke { fill:none; stroke:#1D6BFF; stroke-width:42; stroke-linecap:round; stroke-linejoin:round; }
    .rocketBody { fill:#061226; }
    .rocketAccent { fill:#1D6BFF; }
    @font-face { font-family:'MecoNasalization'; src:local('Nasalization'), local('Nasalization Rg'), local('NasalizationRg-Regular'); font-weight:400; font-style:normal; }
    .word { font-family:'MecoNasalization', Nasalization, 'Nasalization Rg', 'NasalizationRg-Regular', Orbitron, Eurostile, Inter, Arial, sans-serif; font-weight:400; letter-spacing:0.005em; fill:#061226; }
  </style>
  <defs
     id="defs1">
    <inkscape:path-effect
       effect="powerstroke"
       message=""
       id="path-effect8"
       is_visible="true"
       lpeversion="1.3"
       scale_width="1"
       interpolator_type="CentripetalCatmullRom"
       interpolator_beta="0.2"
       start_linecap_type="zerowidth"
       end_linecap_type="zerowidth"
       offset_points="0.16594491,5.4641401 | 1,21 | 1.512549,15.198727"
       linejoin_type="round"
       miter_limit="4"
       not_jump="false"
       sort_points="true" />
    <inkscape:path-effect
       effect="taper_stroke"
       start_shape="center | center"
       end_shape="left | center"
       id="path-effect7"
       is_visible="true"
       lpeversion="1"
       stroke_width="42"
       subpath="1"
       attach_start="0.2"
       end_offset="0.2"
       start_smoothing="0.5"
       end_smoothing="0.5"
       jointype="extrapolated"
       miter_limit="100" />
    <inkscape:path-effect
       effect="fillet_chamfer"
       id="path-effect6"
       is_visible="true"
       lpeversion="1"
       nodesatellites_param="F,0,0,1,0,0,0,1 @ F,0,0,1,0,0,0,1 @ F,0,0,1,0,0,0,1 @ F,0,0,1,0,0,0,1 @ F,0,0,1,0,0,0,1 @ F,0,0,1,0,0,0,1 @ F,0,0,1,0,0,0,1 @ F,0,0,1,0,0,0,1 @ F,0,0,1,0,0,0,1"
       radius="0"
       unit="px"
       method="auto"
       mode="F"
       chamfer_steps="1"
       flexible="false"
       use_knot_distance="true"
       apply_no_radius="true"
       apply_with_radius="true"
       only_selected="false"
       hide_knots="false" />
    <symbol
       id="mecoRocket"
       viewBox="0 0 155.892 260.999"
       overflow="hidden">
      <g
         transform="translate(-18273.331)"
         id="g1">
        <path
           class="rocketBody"
           d="m 0,0 c 3.973,9.709 8.017,19.404 11.896,29.151 0.522,1.313 0.698,3.155 0.476,4.595 -0.667,4.314 -1.774,9.546 -2.467,14.065 -0.396,2.588 -0.336,3.794 0.83,6.075 0.985,1.927 2.052,4.232 2.894,6.226 2.525,5.984 5.196,11.884 7.434,17.981 1.408,3.835 2.704,7.715 3.839,11.638 2.46,8.5 4.433,17.288 4.334,26.205 -0.022,1.969 -0.39,5.584 -0.946,5.841 -0.035,0.016 -0.076,0.024 -0.12,0.028 -0.033,0.029 -0.066,0.053 -0.102,0.067 -0.568,0.229 -3.452,-1.982 -4.899,-3.317 -6.558,-6.043 -11.6,-13.506 -16.1,-21.125 -2.076,-3.517 -4.011,-7.121 -5.837,-10.776 -2.903,-5.81 -5.364,-11.8 -7.988,-17.742 -0.874,-1.98 -1.819,-4.337 -2.546,-6.376 -0.861,-2.413 -1.697,-3.283 -3.852,-4.77 -3.765,-2.595 -8.332,-5.378 -11.928,-7.851 -1.201,-0.826 -2.421,-2.216 -3.018,-3.498 -4.434,-9.507 -8.716,-19.099 -13.057,-28.649 -0.221,-0.486 -0.829,-1.506 -0.488,-1.695 0.678,-0.377 16.21,17.21 22.019,22.973 0.71,0.704 1.445,1.754 2.595,1.167 1.252,-0.64 0.787,-1.933 0.551,-2.963 -0.483,-2.109 -1.138,-4.302 -1.666,-6.401 0.83,0.058 1.991,0.224 2.819,0.207 1.376,0.042 2.715,-0.228 3.985,-0.777 1.27,-0.548 2.384,-1.337 3.298,-2.367 0.581,-0.592 1.255,-1.55 1.783,-2.194 1.165,1.824 2.312,3.805 3.516,5.602 0.588,0.878 1.21,2.104 2.534,1.632 1.216,-0.434 0.956,-1.689 0.93,-2.69 C 0.509,22.083 -1.638,-1.282 -0.899,-1.517 -0.527,-1.635 -0.202,-0.494 0,0"
           transform="matrix(1.3333333,0,0,-1.3333333,18390.24,162.518)"
           id="path1" />
      </g>
    </symbol>
  </defs>
  <g
     id="mark"
     transform="translate(-37.617895,41.34469)">
    <!-- Square open checkbox: 360 x 360 footprint, with intentional top-right gap for launch trail -->
    <path
       class="boxStroke"
       d="m 76.687323,251.31268 v -103.4877 q 0,-79.137657 64.781547,-79.137657 h 161.12335"
       id="path2" />
    <path
       class="boxStroke"
       d="m 430.84888,234.08837 v 114.22736 q 0,69.60731 -78.3762,69.60731 H 155.52732 q -78.376195,0 -78.376195,-69.60731 v -91.02492"
       id="path3" />
    <!-- Longer check/trail ends beneath rocket so the rocket visually rides on the vapor trail -->
    <path
       class="checkStroke"
       d="m 128.1141,236.62266 c 2.11388,3.44301 6.43119,11.499 12.6833,20.65805 13.97172,20.4679 48.46083,70.05236 72.24372,95.45808 a 20.524494,21.199048 43.102282 0 0 31.29566,-1.54373 C 285.08155,301.85814 314.87402,260.31569 347.45901,214.28718 379.35339,169.2342 422.90983,100.71453 438,78 c -19.0314,19.531223 -76.85389,76.52832 -114.18843,117.18734 -33.67376,36.67227 -64.38729,70.4812 -98.41162,112.45025 -26.02766,-21.82733 -60.62551,-46.61816 -76.81804,-58.02687 -9.06539,-6.38716 -17.05651,-10.82338 -20.46781,-12.98806 z"
       id="path4"
       style="fill:#ea1c2d;fill-rule:nonzero;stroke:none;stroke-width:42;stroke-linecap:round;stroke-opacity:1;fill-opacity:1"
       inkscape:path-effect="#path-effect8"
       inkscape:original-d="M 128.1141,236.62266 228,338 438,78"
       sodipodi:nodetypes="ccc" />
    <g
       id="use4"
       style="fill:#ea1c2d;fill-opacity:1;stroke:none;stroke-opacity:1"
       transform="matrix(1.9544216,0.59752666,-0.59752666,1.9544216,224.77968,-114.41545)">
      <g
         transform="translate(-18273.331)"
         id="g5"
         style="stroke:none;stroke-opacity:1;fill:#000000;fill-opacity:1">
        <path
           class="rocketBody"
           d="m 18391.399,161.95889 c 5.297,-12.94534 10.689,-25.872 15.861,-38.868 0.696,-1.75067 0.931,-4.20667 0.635,-6.12667 -0.889,-5.752 -2.365,-12.728 -3.289,-18.753342 -0.528,-3.450666 -0.448,-5.058665 1.106,-8.099999 1.314,-2.569333 2.736,-5.642666 3.859,-8.301333 3.367,-7.978666 6.928,-15.845333 9.912,-23.974666 1.877,-5.113333 3.605,-10.286666 5.119,-15.517333 3.28,-11.333333 5.91,-23.050666 5.778,-34.9399974 -0.03,-2.6253333 -0.52,-7.44533332 -1.261,-7.78799992 -0.05,-0.021333 -0.101,-0.032 -0.16,-0.037333 -0.04,-0.038667 -0.09,-0.070667 -0.136,-0.089333 -0.757,-0.3053333 -4.603,2.64266662 -6.532,4.42266662 -8.744,8.0573317 -15.467,18.0079987 -21.467,28.1666647 -2.768,4.689333 -5.348,9.494666 -7.782,14.368 -3.871,7.746666 -7.152,15.733333 -10.651,23.655999 -1.165,2.64 -2.425,5.782667 -3.395,8.501333 -1.148,3.217333 -2.262,4.377333 -5.136,6.36 -5.02,3.46 -11.109,7.170667 -15.904,10.468 -1.601,1.101333 -3.228,2.954662 -4.024,4.664003 -5.912,12.676 -11.621,25.46534 -17.409,38.19867 -0.295,0.648 -1.105,2.008 -0.651,2.26 0.904,0.50267 21.614,-22.94667 29.359,-30.63067 0.947,-0.93866 1.927,-2.33866 3.46,-1.556 1.669,0.85334 1.049,2.57734 0.735,3.95067 -0.644,2.812 -1.518,5.736 -2.222,8.53467 1.107,-0.0773 2.655,-0.29867 3.759,-0.276 1.835,-0.056 3.62,0.304 5.313,1.036 1.694,0.73066 3.179,1.78266 4.398,3.156 0.774,0.78933 1.673,2.06666 2.377,2.92533 1.553,-2.432 3.083,-5.07333 4.688,-7.46933 0.784,-1.17067 1.613,-2.80534 3.379,-2.176 1.621,0.57866 1.274,2.252 1.24,3.58666 -0.28,10.90534 -3.143,42.05867 -2.158,42.372 0.496,0.15734 0.93,-1.364 1.199,-2.02266"
           id="path5"
           style="fill:#000000;fill-opacity:1;stroke:none;stroke-width:1.33333;stroke-opacity:1"
           sodipodi:nodetypes="ccccccccccccccccccccccccccccccccccc" />
      </g>
    </g>
  </g>
  <text
     class="word"
     x="413.72232"
     y="268.55121"
     font-size="190px"
     id="text4"
     style="font-style:normal;font-variant:normal;font-weight:400;font-stretch:normal;font-size:190px;font-family:'MecoNasalization',Nasalization,'Nasalization Rg','NasalizationRg-Regular',Orbitron,Eurostile,Inter,Arial,sans-serif;-inkscape-font-specification:Nasalization;stroke-width:1.5;fill:#16478e;fill-opacity:1"><tspan
       style="font-style:normal;font-variant:normal;font-weight:400;font-stretch:normal;font-size:190px;font-family:'MecoNasalization',Nasalization,'Nasalization Rg','NasalizationRg-Regular',Orbitron,Eurostile,Inter,Arial,sans-serif;-inkscape-font-specification:Nasalization;fill:#16478e;fill-opacity:1"
       id="tspan2">Mission</tspan></text>
  <text
     class="word"
     x="428.40561"
     y="433.91116"
     font-size="190px"
     id="text5"
     style="font-size:190px;stroke-width:1.5;fill:#16478e;fill-opacity:1"><tspan
       style="font-style:normal;font-variant:normal;font-weight:400;font-stretch:normal;font-size:190px;font-family:'MecoNasalization',Nasalization,'Nasalization Rg','NasalizationRg-Regular',Orbitron,Eurostile,Inter,Arial,sans-serif;-inkscape-font-specification:Nasalization;fill:#16478e;fill-opacity:1"
       id="tspan1">Control</tspan></text>
  <metadata
     id="metadata8">
    <rdf:RDF>
      <cc:Work
         rdf:about="">
        <dc:title>Mission Control logo</dc:title>
      </cc:Work>
    </rdf:RDF>
  </metadata>
</svg>
